<svg id="white_logo" data-name="white logo" xmlns="http://www.w3.org/2000/svg" width="65.69" height="54.148" viewBox="0 0 65.69 54.148">
  <g id="Emblem">
    <path id="Path_13" data-name="Path 13" d="M96.625,70.759h0A5.843,5.843,0,0,0,90.77,65H66.87a5.831,5.831,0,0,0-5.855,5.723h0V82.168H59.151V77.359a2.909,2.909,0,0,0-2.669-2.994H43.09a2.9,2.9,0,0,0-2.669,2.994V92.026a2.885,2.885,0,0,0,2.669,3.03H56.447a2.9,2.9,0,0,0,2.7-2.981V87.265h1.888V119.1h5.614v-6.877c.685,1.2,5.626,6.877,5.626,6.877h4.737V106.4H72.472v6.889l-5.855-6.3v-2.549h24.2a5.843,5.843,0,0,0,5.807-5.867ZM54.487,89.417c0,.685-.3,1.01-.95,1.01h-7.55c-.649,0-.926-.325-.938-1.01V80.064c0-.685.289-1.01.938-1.01h7.55c.649,0,.938.325.95,1.01V82.2h-2.4a1.623,1.623,0,0,0-1.659,1.575h0V85.69h0a1.635,1.635,0,0,0,1.659,1.587h2.4Zm36.536,7.574a1.767,1.767,0,0,1-1.888,1.851H66.617V87.277h1.875v4.809a2.9,2.9,0,0,0,2.681,2.969H84.519a2.885,2.885,0,0,0,2.669-2.981V77.407a2.9,2.9,0,0,0-2.669-2.994H71.174A2.909,2.909,0,0,0,68.5,77.407v4.809H66.617V72.6a1.755,1.755,0,0,1,1.851-1.887H89.207A1.755,1.755,0,0,1,91.059,72.6V96.991ZM77.185,83.779A1.623,1.623,0,0,0,75.526,82.2h-2.4v-2.14c0-.685.3-1.01.95-1.01h7.55c.649,0,.926.325.938,1.01v9.353c0,.685-.289,1.01-.938,1.01h-7.55c-.649,0-.938-.325-.95-1.01v-2.14h2.4a1.635,1.635,0,0,0,1.659-1.587h0Z" transform="translate(-30.935 -65)" fill="#00513a"/>
    <path id="Path_12" data-name="Path 12" d="M32.53,98.578a5.843,5.843,0,0,0,5.807,5.867h22.41V98.83H40.02a1.755,1.755,0,0,1-1.888-1.839V72.526a1.755,1.755,0,0,1,1.851-1.887H60.746V65H38.385a5.831,5.831,0,0,0-5.855,5.723h0V98.374h0Z" transform="translate(-32.53 -65)" fill="#00513a"/>
    <path id="Path_11" data-name="Path 11" d="M43.158,105.594h0c1.827-.313,3.054-1.431,3.054-2.777a3.138,3.138,0,0,0-1.912-2.705,8.681,8.681,0,0,0-3.883-.649H32.53v12.671h7.334a11.35,11.35,0,0,0,4.953-.721,3.306,3.306,0,0,0,1.839-2.885c0-1.515-1.419-2.633-3.5-2.885M37.591,102.2h1.2c1.058,0,2.164.12,2.164,1.082a.974.974,0,0,1-.529.83,2.934,2.934,0,0,1-1.539.24H37.567Zm3.09,6.937a3.33,3.33,0,0,1-1.623.252H37.591v-2.308h1.2a5.1,5.1,0,0,1,1.6.168,1.2,1.2,0,0,1,.89.986,1.094,1.094,0,0,1-.661.9" transform="translate(-32.53 -58.035)" fill="#00513a"/>
    <path id="Path_10" data-name="Path 10" d="M49.03,99.448l-5.11,12.7H48.4l1.022-2.525H53.8l.926,2.525h4.809L54.379,99.4Zm1.2,7.442L51.59,103.2l1.334,3.691Z" transform="translate(-30.226 -58.044)" fill="#00513a"/>
    <path id="Path_9" data-name="Path 9" d="M76.012,99.44H71.035l-4.965,5.254V99.44H60.84v12.744h5.23v-2.957l1.863-1.839,3.1,4.8h6.071l-5.651-8.091Z" transform="translate(-11.464 -58.036)" fill="#00513a"/>
  </g>
</svg>
